<?xml version="1.0" standalone="no"?>
<!DOCTYPE svg PUBLIC "-//W3C//DTD SVG 1.1//EN" "http://www.w3.org/Graphics/SVG/1.1/DTD/svg11.dtd">
<svg width="50" height="50" version="1.1" xmlns="http://www.w3.org/2000/svg">
 <desc>Zint Generated Symbol</desc>
 <g id="barcode" fill="#000000">
  <rect x="0" y="0" width="50" height="50" fill="#FFFFFF"/>
  <path d="M0 0h14v2h-14ZM16 0h2v2h-2ZM26 0h4v2h-4ZM32 0h2v8h-2ZM36 0h14v2h-14ZM0 2h2v10h-2ZM12 2h2v10h-2ZM16 2h8v2h-8ZM28 2h2v2h-2ZM36 2h2v10h-2ZM48 2h2v10h-2ZM4 4h6v6h-6ZM20 4h2v2h-2ZM24 4h4v2h-4ZM40 4h6v6h-6ZM16 6h4v2h-4ZM22 6h2v6h-2ZM26 6h4v2h-4ZM26 8h6v2h-6ZM18 10h2v2h-2ZM32 10h2v4h-2ZM0 12h14v2h-14ZM16 12h2v2h-2ZM20 12h2v2h-2ZM24 12h2v2h-2ZM28 12h2v2h-2ZM36 12h14v2h-14ZM16 14h6v2h-6ZM28 14h4v2h-4ZM0 16h2v2h-2ZM4 16h4v2h-4ZM10 16h6v2h-6ZM20 16h2v2h-2ZM28 16h2v2h-2ZM36 16h2v2h-2ZM42 16h2v4h-2ZM46 16h4v2h-4ZM4 18h6v2h-6ZM14 18h4v2h-4ZM22 18h12v2h-12ZM38 18h2v4h-2ZM46 18h2v2h-2ZM2 20h4v2h-4ZM12 20h2v2h-2ZM18 20h2v2h-2ZM28 20h2v2h-2ZM32 20h2v2h-2ZM42 20h4v2h-4ZM0 22h2v2h-2ZM10 22h2v2h-2ZM14 22h4v2h-4ZM24 22h6v2h-6ZM32 22h6v2h-6ZM42 22h6v2h-6ZM4 24h2v2h-2ZM8 24h2v2h-2ZM12 24h4v2h-4ZM20 24h8v2h-8ZM32 24h2v2h-2ZM36 24h2v2h-2ZM40 24h6v2h-6ZM2 26h2v4h-2ZM6 26h6v2h-6ZM18 26h2v2h-2ZM22 26h4v2h-4ZM30 26h2v2h-2ZM34 26h8v2h-8ZM46 26h4v2h-4ZM8 28h2v2h-2ZM12 28h4v2h-4ZM22 28h2v2h-2ZM28 28h2v6h-2ZM34 28h10v2h-10ZM46 28h2v2h-2ZM0 30h2v2h-2ZM6 30h2v2h-2ZM10 30h2v2h-2ZM16 30h2v2h-2ZM20 30h4v2h-4ZM32 30h4v2h-4ZM38 30h4v2h-4ZM48 30h2v2h-2ZM4 32h2v2h-2ZM12 32h6v2h-6ZM24 32h2v2h-2ZM32 32h10v2h-10ZM44 32h2v2h-2ZM16 34h2v2h-2ZM20 34h2v2h-2ZM32 34h2v2h-2ZM40 34h4v2h-4ZM48 34h2v2h-2ZM0 36h14v2h-14ZM16 36h4v2h-4ZM26 36h8v4h-8ZM36 36h2v2h-2ZM40 36h2v2h-2ZM44 36h6v2h-6ZM0 38h2v10h-2ZM12 38h2v10h-2ZM16 38h2v2h-2ZM22 38h2v2h-2ZM40 38h4v2h-4ZM4 40h6v6h-6ZM20 40h2v4h-2ZM26 40h4v2h-4ZM32 40h12v2h-12ZM46 40h2v2h-2ZM16 42h2v2h-2ZM32 42h2v2h-2ZM36 42h2v4h-2ZM40 42h4v2h-4ZM46 42h4v2h-4ZM16 44h6v2h-6ZM28 44h4v2h-4ZM40 44h2v2h-2ZM44 44h4v2h-4ZM18 46h2v2h-2ZM22 46h8v2h-8ZM32 46h4v2h-4ZM38 46h2v4h-2ZM42 46h4v2h-4ZM0 48h14v2h-14ZM16 48h2v2h-2ZM22 48h2v2h-2ZM42 48h8v2h-8Z"/>
 </g>
</svg>
